<svg width="30" height="30" viewBox="0 0 30 30" fill="none" xmlns="http://www.w3.org/2000/svg">
<path fill-rule="evenodd" clip-rule="evenodd" d="M16.95 1.56924C17.2545 1.665 17.5205 1.85541 17.7094 2.11277C17.8982 2.37013 18 2.68103 18 3.00024V10.5002H24C24.2744 10.5001 24.5435 10.5753 24.7782 10.7175C25.0128 10.8597 25.2039 11.0635 25.3308 11.3069C25.4576 11.5502 25.5153 11.8236 25.4975 12.0974C25.4797 12.3712 25.3872 12.6349 25.23 12.8597L14.73 27.8597C14.5473 28.1215 14.2857 28.3182 13.9835 28.4211C13.6813 28.524 13.3541 28.5278 13.0495 28.432C12.745 28.3361 12.479 28.1455 12.2902 27.888C12.1015 27.6305 11.9998 27.3195 12 27.0002V19.5002H6C5.72562 19.5004 5.45646 19.4252 5.22182 19.283C4.98718 19.1408 4.79604 18.9369 4.66921 18.6936C4.54238 18.4503 4.48471 18.1769 4.50248 17.9031C4.52025 17.6293 4.61278 17.3656 4.77 17.1407L15.27 2.14074C15.453 1.87942 15.7146 1.68326 16.0167 1.58075C16.3188 1.47825 16.6457 1.47474 16.95 1.57074V1.56924Z" fill="#FF0000"/>
</svg>
