<svg width="30" height="30" viewBox="0 0 30 30" fill="none" xmlns="http://www.w3.org/2000/svg">
<path fill-rule="evenodd" clip-rule="evenodd" d="M7.5 3.00024C7.89782 3.00024 8.27936 3.15828 8.56066 3.43958C8.84196 3.72089 9 4.10242 9 4.50024V6.00024H10.5C10.8978 6.00024 11.2794 6.15828 11.5607 6.43958C11.842 6.72089 12 7.10242 12 7.50024C12 7.89807 11.842 8.2796 11.5607 8.5609C11.2794 8.84221 10.8978 9.00024 10.5 9.00024H9V10.5002C9 10.8981 8.84196 11.2796 8.56066 11.5609C8.27936 11.8422 7.89782 12.0002 7.5 12.0002C7.10217 12.0002 6.72064 11.8422 6.43934 11.5609C6.15804 11.2796 6 10.8981 6 10.5002V9.00024H4.5C4.10218 9.00024 3.72064 8.84221 3.43934 8.5609C3.15804 8.2796 3 7.89807 3 7.50024C3 7.10242 3.15804 6.72089 3.43934 6.43958C3.72064 6.15828 4.10218 6.00024 4.5 6.00024H6V4.50024C6 4.10242 6.15804 3.72089 6.43934 3.43958C6.72064 3.15828 7.10217 3.00024 7.5 3.00024ZM7.5 18.0002C7.89782 18.0002 8.27936 18.1583 8.56066 18.4396C8.84196 18.7209 9 19.1024 9 19.5002V21.0002H10.5C10.8978 21.0002 11.2794 21.1583 11.5607 21.4396C11.842 21.7209 12 22.1024 12 22.5002C12 22.8981 11.842 23.2796 11.5607 23.5609C11.2794 23.8422 10.8978 24.0002 10.5 24.0002H9V25.5002C9 25.8981 8.84196 26.2796 8.56066 26.5609C8.27936 26.8422 7.89782 27.0002 7.5 27.0002C7.10217 27.0002 6.72064 26.8422 6.43934 26.5609C6.15804 26.2796 6 25.8981 6 25.5002V24.0002H4.5C4.10218 24.0002 3.72064 23.8422 3.43934 23.5609C3.15804 23.2796 3 22.8981 3 22.5002C3 22.1024 3.15804 21.7209 3.43934 21.4396C3.72064 21.1583 4.10218 21.0002 4.5 21.0002H6V19.5002C6 19.1024 6.15804 18.7209 6.43934 18.4396C6.72064 18.1583 7.10217 18.0002 7.5 18.0002ZM18 3.00024C18.331 3.00014 18.6528 3.10954 18.9152 3.3114C19.1775 3.51326 19.3658 3.79624 19.4505 4.11624L21.219 10.8002L26.25 13.7012C26.478 13.8329 26.6673 14.0223 26.799 14.2503C26.9306 14.4783 26.9999 14.737 26.9999 15.0002C26.9999 15.2635 26.9306 15.5222 26.799 15.7502C26.6673 15.9782 26.478 16.1676 26.25 16.2992L21.219 19.2017L19.449 25.8842C19.3641 26.2039 19.1759 26.4866 18.9137 26.6883C18.6515 26.8899 18.33 26.9992 17.9992 26.9992C17.6685 26.9992 17.347 26.8899 17.0848 26.6883C16.8226 26.4866 16.6344 26.2039 16.5495 25.8842L14.781 19.2002L9.75 16.2992C9.52199 16.1676 9.33265 15.9782 9.20101 15.7502C9.06937 15.5222 9.00007 15.2635 9.00007 15.0002C9.00007 14.737 9.06937 14.4783 9.20101 14.2503C9.33265 14.0223 9.52199 13.8329 9.75 13.7012L14.781 10.7987L16.551 4.11624C16.6357 3.79649 16.8237 3.51369 17.0857 3.31186C17.3478 3.11002 17.6692 3.00047 18 3.00024Z" fill="#FF0000"/>
</svg>
